name C:\Users\u0101727\Documents\MyRepositories\upper-imu-dc\Results\main_tracking\Case_48\kinematics.mot
datacolumns 10
datarows 37
range 4.55000000 4.91000000
endheader 
time	clav_prot	clav_elev	scapula_abduction	scapula_elevation	scapula_upward_rot	scapula_winging	plane_elv	shoulder_elv	axial_rot	
          4.55000000	        -35.17524141	          5.42720748	        -14.83557734	         -3.73422351	         44.01458649	         -6.59944596	         -3.23388459	         59.97185406	          9.82747292	
          4.56000000	        -35.25589685	          5.51738723	        -14.78718981	         -3.70635353	         44.28082157	         -6.69545261	         -3.11311928	         60.21141962	          9.83868957	
          4.57000000	        -35.33666292	          5.60558849	        -14.74013672	         -3.67923806	         44.54446504	         -6.79020850	         -2.99002171	         60.45189135	          9.84144225	
          4.58000000	        -35.41750909	          5.69173955	        -14.69444963	         -3.65292013	         44.80539378	         -6.88367961	         -2.86449743	         60.69302079	          9.83732077	
          4.59000000	        -35.49838609	          5.77581328	        -14.65009525	         -3.62741729	         45.06354711	         -6.97584707	         -2.73650356	         60.93454806	          9.82799522	
          4.60000000	        -35.57923490	          5.85783108	        -14.60699717	         -3.60271844	         45.31891962	         -7.06670973	         -2.60603708	         61.17620835	          9.81512734	
          4.61000000	        -35.65999651	          5.93786101	        -14.56506218	         -3.57878420	         45.57154727	         -7.15628467	         -2.47311969	         61.41773879	          9.80028314	
          4.62000000	        -35.74062178	          6.01601140	        -14.52420970	         -3.55555000	         45.82148781	         -7.24460601	         -2.33777989	         61.65888525	          9.78484568	
          4.63000000	        -35.82108034	          6.09242185	        -14.48440160	         -3.53293072	         46.06879778	         -7.33172255	         -2.20003352	         61.89940919	          9.76993006	
          4.64000000	        -35.90136718	          6.16725295	        -14.44566793	         -3.51082619	         46.31350941	         -7.41769462	         -2.05986492	         62.13909500	          9.75630669	
          4.65000000	        -35.98150535	          6.24067523	        -14.40812324	         -3.48912746	         46.55561093	         -7.50258992	         -1.91721205	         62.37775828	          9.74434266	
          4.66000000	        -36.06154425	          6.31285769	        -14.37197075	         -3.46772363	         46.79503306	         -7.58647866	         -1.77195850	         62.61525426	          9.73397143	
          4.67000000	        -36.14155445	          6.38395754	        -14.33749524	         -3.44650844	         47.03164285	         -7.66942860	         -1.62393284	         62.85148473	          9.72469943	
          4.68000000	        -36.22162050	          6.45411331	        -14.30504743	         -3.42538501	         47.26524569	         -7.75150141	         -1.47291372	         63.08640077	          9.71565401	
          4.69000000	        -36.30183310	          6.52344347	        -14.27502281	         -3.40426742	         47.49559510	         -7.83275103	         -1.31863870	         63.31999959	          9.70567148	
          4.70000000	        -36.38228103	          6.59205014	        -14.24783691	         -3.38307918	         47.72240889	         -7.91322395	         -1.16081617	         63.55231579	          9.69341480	
          4.71000000	        -36.46304287	          6.66002494	        -14.22389787	         -3.36175038	         47.94538890	         -7.99296008	         -0.99914073	         63.78341015	          9.67750217	
          4.72000000	        -36.54417816	          6.72745357	        -14.20357669	         -3.34021564	         48.16424195	         -8.07199285	         -0.83331300	         64.01335946	          9.65662666	
          4.73000000	        -36.62571810	          6.79441652	        -14.18717563	         -3.31841449	         48.37870068	         -8.15034770	         -0.66306340	         64.24224920	          9.62965443	
          4.74000000	        -36.70765721	          6.86098570	        -14.17489705	         -3.29629444	         48.58854344	         -8.22803925	         -0.48817824	         64.47016881	          9.59569933	
          4.75000000	        -36.78994715	          6.92721835	        -14.16681652	         -3.27381584	         48.79361271	         -8.30506833	         -0.30852413	         64.69720773	          9.55417719	
          4.76000000	        -36.87249481	          6.99315051	        -14.16286507	         -3.25095691	         48.99383016	         -8.38142001	         -0.12406623	         64.92344965	          9.50484310	
          4.77000000	        -36.95516565	          7.05879251	        -14.16282484	         -3.22771739	         49.18920676	         -8.45706376	          0.06512320	         65.14896363	          9.44781121	
          4.78000000	        -37.03779219	          7.12412827	        -14.16633942	         -3.20411941	         49.37984679	         -8.53195621	          0.25886706	         65.37379153	          9.38355404	
          4.79000000	        -37.12018652	          7.18911974	        -14.17293711	         -3.18020476	         49.56594616	         -8.60604661	          0.45689522	         65.59793363	          9.31287873	
          4.80000000	        -37.20215503	          7.25371642	        -14.18206304	         -3.15602852	         49.74778639	         -8.67928438	          0.65886322	         65.82133553	          9.23688007	
          4.81000000	        -37.28351348	          7.31786885	        -14.19311629	         -3.13164979	         49.92572489	         -8.75162775	          0.86437480	         66.04387971	          9.15687304	
          4.82000000	        -37.36410057	          7.38154387	        -14.20548776	         -3.10712108	         50.10018209	         -8.82305224	          1.07300587	         66.26538383	          9.07431035	
          4.83000000	        -37.44378818	          7.44473927	        -14.21859445	         -3.08247768	         50.27162603	         -8.89355751	          1.28432668	         66.48560663	          8.99069320	
          4.84000000	        -37.52248674	          7.50749542	        -14.23190557	         -3.05772883	         50.44055580	         -8.96317122	          1.49791927	         66.70426161	          8.90748546	
          4.85000000	        -37.60014440	          7.56990104	        -14.24495658	         -3.03285253	         50.60748518	         -9.03194883	          1.71338719	         66.92103807	          8.82604107	
          4.86000000	        -37.67674017	          7.63209099	        -14.25734901	         -3.00779558	         50.77292811	         -9.09996867	          1.93035553	         67.13562818	          8.74755227	
          4.87000000	        -37.75227189	          7.69423581	        -14.26873633	         -2.98247917	         50.93738743	         -9.16732292	          2.14846122	         67.34775765	          8.67302262	
          4.88000000	        -37.82674154	          7.75652385	        -14.27879964	         -2.95680963	         51.10134773	         -9.23410557	          2.36733583	         67.55721677	          8.60326363	
          4.89000000	        -37.90014069	          7.81913886	        -14.28721898	         -2.93069248	         51.26527168	         -9.30039957	          2.58658563	         67.76388763	          8.53890957	
          4.90000000	        -37.97243895	          7.88223606	        -14.29364754	         -2.90404799	         51.42959846	         -9.36626505	          2.80577418	         67.96776302	          8.48044175	
          4.91000000	        -38.04357786	          7.94591977	        -14.29769514	         -2.87682588	         51.59474190	         -9.43173035	          3.02441238	         68.16895316	          8.42821280	
